<?xml version="1.0" encoding="UTF-8"?>
<svg width="51px" height="51px" viewBox="0 0 51 51" version="1.1" xmlns="http://www.w3.org/2000/svg" xmlns:xlink="http://www.w3.org/1999/xlink">
    <!-- Generator: Sketch 52.3 (67297) - http://www.bohemiancoding.com/sketch -->
    <title>puzzle</title>
    <desc>Created with Sketch.</desc>
    <g id="UI" stroke="none" stroke-width="1" fill="none" fill-rule="evenodd">
        <g id="Toolkit" transform="translate(-525.000000, -392.000000)" fill-rule="nonzero">
            <g id="Group" transform="translate(400.000000, 298.000000)">
                <g id="puzzle" transform="translate(125.000000, 94.000000)">
                    <rect id="Rectangle-path" x="0.99609375" y="0.99609375" width="49.0078125" height="49.0078125"></rect>
                    <path d="M23.7909023,11.1435996 C25.5065742,11.1435996 27.0602812,11.836084 28.1886562,12.9563906 L28.1886562,12.9546973 C29.3185254,14.0845664 30.8792051,14.7837246 32.6021484,14.7837246 L33.7761445,14.7837246 L33.7761445,0.99609375 L0.99609375,0.99609375 L0.99609375,33.7761445 L14.7837246,33.7761445 L14.7837246,34.9501406 C14.7837246,36.673084 14.0845664,38.2336641 12.9546973,39.3636328 L12.9563906,39.3636328 C11.836084,40.4920078 11.1435996,42.0457148 11.1435996,43.7613867 C11.1435996,47.2090664 13.9384395,50.0039062 17.3861191,50.0039062 C20.8337988,50.0039062 23.6286387,47.2090664 23.6286387,43.7613867 C23.6286387,42.0457148 22.9361543,40.4920078 21.8158477,39.3636328 L21.8168437,39.3636328 C20.6869746,38.2337637 19.9878164,36.673084 19.9878164,34.9501406 L19.9878164,33.7761445 L33.7761445,33.7761445 L33.7761445,19.9878164 L32.6021484,19.9878164 C30.8792051,19.9878164 29.318625,20.6869746 28.1886562,21.8168438 L28.1886562,21.8158477 C27.0602812,22.9361543 25.5065742,23.6286387 23.7909023,23.6286387 C20.3432227,23.6286387 17.5483828,20.8337988 17.5483828,17.3861191 C17.5483828,13.9384395 20.3432227,11.1435996 23.7909023,11.1435996 Z" id="Shape"></path>
                    <rect id="Rectangle-path" x="33.776543" y="33.776543" width="16.2273633" height="16.2273633"></rect>
                    <path d="M50.0039062,0 L0.99609375,0 C0.446050781,0 0,0.446050781 0,0.99609375 L0,50.0039062 C0,50.5539492 0.446050781,51 0.99609375,51 L50.0039062,51 C50.5539492,51 51,50.5539492 51,50.0039062 L51,0.99609375 C51,0.446050781 50.5539492,0 50.0039062,0 Z M34.7722383,14.7837246 L34.7722383,1.9921875 L49.0078125,1.9921875 L49.0078125,32.7800508 L34.7722383,32.7800508 L34.7722383,19.9878164 C34.7722383,19.4377734 34.3261875,18.9917227 33.7761445,18.9917227 L32.6021484,18.9917227 C30.6836719,18.9917227 28.8785508,19.7339121 27.5145996,21.0824238 C27.5052363,21.0910898 27.4959727,21.0998555 27.4869082,21.1089199 C26.4972891,22.0914668 25.1848359,22.6325449 23.791002,22.6325449 C20.8981465,22.6325449 18.5445762,20.2789746 18.5445762,17.3861191 C18.5445762,14.4932637 20.8981465,12.1396934 23.791002,12.1396934 C25.1848359,12.1396934 26.4973887,12.6808711 27.4869082,13.6633184 C27.4987617,13.6750723 27.5109141,13.6864277 27.5232656,13.697584 C28.8862207,15.0407168 30.6877559,15.7798184 32.6021484,15.7798184 L33.7761445,15.7798184 C34.3261875,15.7798184 34.7722383,15.3337676 34.7722383,14.7837246 Z M1.9921875,49.0078125 L1.9921875,34.7722383 L13.7876309,34.7722383 L13.7876309,34.9501406 C13.7876309,36.350748 13.2417715,37.6679824 12.2503594,38.6591953 C12.2367129,38.6728418 12.2235645,38.6866875 12.2109141,38.7009316 C10.879834,40.0615957 10.1475059,41.856457 10.1475059,43.7613867 C10.1475059,45.8242969 11.0151035,47.6881875 12.4043555,49.0078125 L1.9921875,49.0078125 Z M17.3861191,49.0078125 C14.4932637,49.0078125 12.1396934,46.6542422 12.1396934,43.7613867 C12.1396934,42.3675527 12.6807715,41.055 13.6633184,40.0654805 C13.6750723,40.0535273 13.6865273,40.0414746 13.6976836,40.0290234 C15.0408164,38.6660684 15.7798184,36.8646328 15.7798184,34.9502402 L15.7798184,33.7762441 C15.7798184,33.2262012 15.3337676,32.7801504 14.7837246,32.7801504 L1.9921875,32.7801504 L1.9921875,1.9921875 L32.7800508,1.9921875 L32.7800508,13.7876309 L32.6021484,13.7876309 C31.201541,13.7876309 29.8843066,13.2417715 28.8930937,12.2503594 C28.8794473,12.2367129 28.8656016,12.2234648 28.8513574,12.2109141 C27.4906934,10.879834 25.695832,10.1475059 23.7909023,10.1475059 C19.7995547,10.1475059 16.5522891,13.3947715 16.5522891,17.3861191 C16.5522891,21.3774668 19.7995547,24.6247324 23.7909023,24.6247324 C25.6998164,24.6247324 27.4982637,23.8892168 28.8599238,22.5528574 C28.8711797,22.542498 28.8823359,22.5320391 28.8930937,22.5211816 C29.8843066,21.5298691 31.2016406,20.9839102 32.6021484,20.9839102 L32.7800508,20.9839102 L32.7800508,32.7800508 L19.9878164,32.7800508 C19.4377734,32.7800508 18.9917227,33.2261016 18.9917227,33.7761445 L18.9917227,34.9501406 C18.9917227,36.8686172 19.7338125,38.6736387 21.0823242,40.0375898 C21.0909902,40.0470527 21.0998555,40.0563164 21.1089199,40.0653809 C22.0914668,41.055 22.6325449,42.3674531 22.6325449,43.7612871 C22.6325449,46.6542422 20.2789746,49.0078125 17.3861191,49.0078125 Z M24.6247324,43.7613867 C24.6247324,41.8524727 23.8892168,40.0540254 22.5528574,38.6922656 C22.542498,38.6811094 22.5320391,38.6699531 22.5211816,38.6591953 C21.5298691,37.6679824 20.9839102,36.3506484 20.9839102,34.9501406 L20.9839102,34.7722383 L32.7800508,34.7722383 L32.7800508,49.0078125 L22.3655918,49.0078125 C23.7557402,47.6882871 24.6247324,45.8248945 24.6247324,43.7613867 Z M34.7722383,49.0078125 L34.7722383,34.7722383 L49.0078125,34.7722383 L49.0078125,49.0078125 L34.7722383,49.0078125 Z" id="Shape" fill="#3A495B"></path>
                    <path d="M41.7542578,38.7570117 L46.0195313,38.7570117 C46.5694746,38.7570117 47.015625,38.3097656 47.015625,37.760918 C47.015625,37.2120703 46.5694746,36.7648242 46.0195313,36.7648242 L41.7542578,36.7648242 C41.2044141,36.7648242 40.7581641,37.2120703 40.7581641,37.760918 C40.7581641,38.3097656 41.2044141,38.7570117 41.7542578,38.7570117 Z" id="Shape" fill="#3A495B"></path>
                    <path d="M37.7698828,38.7570117 C38.3188301,38.7570117 38.7659766,38.3097656 38.7659766,37.760918 C38.7659766,37.2120703 38.3188301,36.7648242 37.7698828,36.7648242 C37.2200391,36.7648242 36.7737891,37.2120703 36.7737891,37.760918 C36.7737891,38.3097656 37.2200391,38.7570117 37.7698828,38.7570117 Z" id="Shape" fill="#3A495B"></path>
                    <path d="M37.760918,47.015625 C38.3097656,47.015625 38.7570117,46.5694746 38.7570117,46.0195312 L38.7570117,41.7373242 C38.7570117,41.1874805 38.3097656,40.7412305 37.760918,40.7412305 C37.2120703,40.7412305 36.7648242,41.1874805 36.7648242,41.7373242 L36.7648242,46.0195312 C36.7648242,46.5694746 37.2120703,47.015625 37.760918,47.015625 Z" id="Shape" fill="#3A495B"></path>
                </g>
            </g>
        </g>
    </g>
</svg>